<svg viewBox="0 8 100 92" fill="none" xmlns="http://www.w3.org/2000/svg">
  <defs>
    <radialGradient id="h" cx="50%" cy="40%" r="65%"><stop offset="0%" stop-color="#F5C842"/><stop offset="100%" stop-color="#D49B12"/></radialGradient>
    <radialGradient id="c" cx="50%" cy="40%" r="70%"><stop offset="0%" stop-color="#F7D04A"/><stop offset="100%" stop-color="#D9A015"/></radialGradient>
    <radialGradient id="e" cx="30%" cy="25%" r="75%"><stop offset="0%" stop-color="#FCD34D"/><stop offset="100%" stop-color="#B45309"/></radialGradient>
  </defs>
  <circle cx="28" cy="22" r="9" fill="#D49B12"/>
  <circle cx="28" cy="22" r="5.5" fill="#E8B32D"/>
  <circle cx="72" cy="22" r="9" fill="#D49B12"/>
  <circle cx="72" cy="22" r="5.5" fill="#E8B32D"/>
  <circle cx="50" cy="55" r="38" fill="url(#h)"/>
  <ellipse cx="14" cy="62" rx="12" ry="11" fill="url(#c)"/>
  <ellipse cx="86" cy="62" rx="12" ry="11" fill="url(#c)"/>
  <circle cx="36" cy="50" r="13" fill="white"/>
  <circle cx="36" cy="50" r="10" fill="url(#e)"/>
  <ellipse cx="36" cy="50" rx="6" ry="6" fill="#1C1917"/>
  <circle cx="40" cy="46" r="3" fill="white"/>
  <circle cx="64" cy="50" r="13" fill="white"/>
  <circle cx="64" cy="50" r="10" fill="url(#e)"/>
  <ellipse cx="64" cy="50" rx="6" ry="6" fill="#1C1917"/>
  <circle cx="68" cy="46" r="3" fill="white"/>
  <ellipse cx="50" cy="64" rx="3" ry="2.2" fill="#B45309"/>
  <path d="M44 68 Q50 73 56 68" stroke="#8B4513" stroke-width="1.6" fill="none" stroke-linecap="round"/>
  <rect x="75" y="16" width="18" height="12" rx="5" fill="#22D3EE"/>
  <path d="M80 28 L77 32 L83 28" fill="#22D3EE"/>
  <circle cx="80" cy="22" r="1.3" fill="white" opacity="0.9"/>
  <circle cx="84" cy="22" r="1.3" fill="white" opacity="0.9"/>
  <circle cx="88" cy="22" r="1.3" fill="white" opacity="0.9"/>
</svg>
